<svg width="129" height="128" viewBox="0 0 129 128" fill="none" xmlns="http://www.w3.org/2000/svg">
<path d="M80.8508 83.9373C79.5808 83.6173 76.3108 86.9873 75.1408 87.8373C67.0108 93.7073 53.5608 98.6273 43.4808 98.6173C41.5608 98.6173 38.5308 97.7873 37.8008 95.8173C37.1008 93.9373 37.1708 85.5873 37.3708 83.2573C37.5108 81.5073 38.1408 81.6673 39.7808 81.4173C43.6308 80.8473 47.1908 80.7673 50.7708 78.9373C52.3408 78.1473 54.8108 76.7973 53.9108 74.7173C52.8008 72.1573 49.9408 74.8373 48.5308 75.4573C45.5908 76.7473 40.2308 77.5673 37.0008 77.6473C36.2708 77.6673 34.9008 77.7273 34.3708 77.2173C32.7708 75.6673 35.9008 71.1473 32.5908 69.8373C29.8608 68.7573 26.1208 68.3673 23.2408 67.4573C21.6608 66.9573 20.3508 66.6373 20.9608 64.5973C21.0908 64.1773 24.7308 60.9173 25.4008 60.3073C26.9108 58.9173 28.5908 57.6673 30.1108 56.2873C30.1108 56.2873 30.1174 56.2806 30.1308 56.2673C30.8108 55.6273 32.6708 52.9373 32.9008 55.0573C32.9308 55.3173 32.9608 55.5873 33.0008 55.8673C32.7208 53.2673 32.5108 48.4473 32.5108 48.4473C32.5008 48.4773 32.4808 48.4973 32.4508 48.5373C31.6208 49.8173 25.1008 55.0173 25.1008 55.0173C22.0308 58.9673 13.2108 62.8173 17.8108 68.8973C20.1308 71.9673 29.1708 72.4873 29.7808 73.6573C30.0208 74.1173 29.4208 76.3873 29.8808 77.7873C30.5308 79.7573 32.2308 80.3573 33.3908 81.7673C33.6008 85.9273 33.1008 90.3673 33.3808 94.4973C34.0308 104.317 45.6808 102.967 52.6608 101.787C53.3408 101.677 55.2908 100.677 55.7308 101.337C56.0108 101.747 55.7608 104.157 55.4408 104.377C54.8908 104.747 51.5508 105.507 50.5508 105.917C48.8408 106.617 44.4008 108.647 43.9308 110.517C43.3608 112.737 44.4508 119.127 44.9308 121.617C45.1408 122.687 45.5608 125.067 45.8708 125.927C46.8008 128.537 49.1008 128.457 50.1108 125.927C49.5808 122.567 48.5308 119.037 48.1408 115.667C48.0308 114.797 47.8008 112.437 48.2408 111.837C48.7408 111.167 54.7808 108.517 55.4308 108.637C56.8208 108.887 55.4708 113.577 57.9508 113.847C59.3608 113.997 60.1708 113.337 60.3408 111.967C60.6208 109.627 59.8408 105.937 59.8208 103.487C59.9608 102.517 59.5208 100.567 60.2108 99.8573C65.3508 97.9273 70.5108 95.8173 75.1408 92.8273C76.7408 91.7873 81.0908 88.6873 82.0408 87.2573C82.8708 86.0073 82.2408 84.2773 80.8508 83.9373Z" fill="black"/>
<path d="M83.152 47.4469C82.602 47.5469 78.222 47.5469 76.762 47.4269H71.792H61.132H51.012C50.552 47.2669 50.422 44.6469 49.952 43.7369C49.672 43.1869 48.572 42.0969 47.822 41.7969H27.602C23.392 43.4569 25.832 51.5869 25.102 55.0169C25.102 55.0169 31.622 49.8169 32.452 48.5369C32.042 49.1169 29.952 51.0369 29.522 50.9469C28.882 50.8269 29.082 46.0269 29.422 45.7369C29.542 45.6369 31.852 45.7369 32.382 45.4669C32.622 46.2969 32.872 47.6569 32.512 48.4469C32.512 48.4469 32.722 53.2669 33.002 55.8669C33.022 56.0569 33.052 56.2369 33.072 56.3969C33.102 56.6069 33.142 56.8169 33.172 57.0269C34.042 62.1269 36.332 67.7769 42.502 67.1769C47.702 66.6769 49.852 59.6569 50.352 55.3169C50.482 54.1969 49.882 51.9869 51.352 51.5469C51.902 51.3769 52.092 51.6969 52.222 51.6969H80.302C80.402 51.4969 81.802 49.0269 83.832 47.1569C83.612 47.2969 83.382 47.4069 83.152 47.4469ZM46.362 54.3169C46.112 57.3669 43.762 66.5369 39.382 62.0569C36.752 59.3669 36.392 50.4169 36.872 46.8269C36.932 46.3369 37.012 45.9169 37.552 45.7569C38.352 45.5269 43.652 45.5969 44.742 45.7069C45.202 45.7569 46.172 45.9069 46.332 46.3669C46.562 47.0469 46.452 53.1969 46.362 54.3169Z" fill="black"/>
<path d="M102.512 23.1269C99.7322 21.1169 97.0522 18.8869 94.2522 16.9069C93.1222 16.1069 91.8422 15.1469 90.5122 16.1269C89.9122 16.5669 89.4322 17.4269 89.7122 18.1869C90.3322 19.8369 94.6622 22.1969 96.1922 23.3169C96.6122 23.9669 96.6722 24.2069 95.9122 24.5269C94.1822 25.2569 90.5822 25.0569 88.7222 24.6869C81.0422 23.1269 76.9622 11.6569 67.8222 15.8969C66.6422 16.4469 64.2422 18.9069 63.7022 19.0069C62.1922 19.2969 56.9422 19.1569 55.2122 19.0269C54.7522 18.9869 53.4622 18.8369 53.2222 18.5169C53.0822 18.3369 52.1822 14.5969 52.1322 14.1169C51.7622 10.8469 52.2222 7.63687 54.9722 5.53687C58.4422 2.89687 64.0522 4.51688 68.1422 3.98688C69.9822 2.68688 70.1922 1.85687 68.8222 0.046875H43.8722C42.9222 1.00687 41.3622 1.27688 40.2522 2.04688C36.0622 4.95687 35.0122 10.0669 35.6322 14.8969C35.8122 16.2869 37.1822 19.8469 37.1322 20.6169C37.1022 21.0869 35.2322 23.9769 34.8722 24.8669C32.8622 29.8169 32.5522 36.4969 32.6122 41.7969H36.8722C36.6822 40.2369 36.7722 36.2469 36.8722 34.5969C37.0922 30.8069 38.3322 26.3769 40.5222 23.2769L63.3322 23.2569V32.8569C63.3322 34.0869 66.6022 35.7669 67.5722 36.5969C70.9622 39.4869 72.0622 43.0069 71.7922 47.4269H76.7622C76.5022 47.4069 76.3322 47.3769 76.2922 47.3469C75.8722 45.9269 76.0322 44.1569 75.7422 42.6469C75.2722 40.1669 73.9622 37.5169 72.3222 35.5969C70.8422 33.8769 68.8322 32.7869 67.3722 31.0669C67.5022 28.3169 67.0222 25.0569 67.3022 22.3669C67.5922 19.6969 71.2422 18.7269 73.5222 19.4269C75.1922 19.9369 77.0522 22.1569 78.4322 23.2469C84.0122 27.6369 87.2522 29.8169 94.8622 28.9669C96.9922 28.7269 105.022 26.2869 102.512 23.1269ZM47.8922 13.8669C47.9822 14.8069 49.1122 18.2469 48.8222 18.7269C48.6322 18.7469 48.3222 19.0169 48.2322 19.0169H41.5022C40.6722 19.0169 40.0222 15.7969 39.9122 15.1069C39.3122 11.3969 39.4322 7.38688 42.9422 5.23688C43.4022 4.96688 45.3422 4.04688 45.7422 4.04688H50.3522C50.6322 4.31687 49.0822 6.33687 48.8522 6.89687C48.0522 8.81687 47.6822 11.8069 47.8922 13.8669Z" fill="black"/>
<path d="M128.702 94.3678C127.842 94.5078 127.482 95.3678 126.792 95.8278C125.992 96.3478 124.112 96.8278 123.542 97.4378C122.472 98.5978 122.382 102.548 120.532 104.098C116.462 107.518 115.512 98.9078 114.252 97.4678C113.092 96.1478 108.992 95.8778 108.992 92.9878C108.992 89.9478 113.502 89.7378 114.502 88.2578C115.022 87.4878 115.362 85.2978 115.792 84.3078C117.392 80.5578 119.952 79.8978 121.852 83.8778C122.242 84.6978 123.072 88.0478 123.282 88.3078C123.642 88.7478 125.792 89.5078 126.352 89.8578C127.252 90.4078 127.732 91.3078 128.712 91.6178V94.3578L128.702 94.3678ZM119.102 88.6378C118.252 89.2878 118.122 90.4878 117.482 91.2578C116.922 91.9378 115.232 92.4578 115.232 92.9978C115.232 93.5378 116.922 94.0678 117.482 94.7378C118.112 95.5078 118.242 96.7078 119.102 97.3578C119.722 96.7878 119.552 95.9278 119.972 95.2378C120.432 94.4678 122.492 93.4778 122.492 92.9978C121.922 92.0578 120.772 91.8778 120.122 90.8678C119.652 90.1278 119.692 89.2678 119.112 88.6378H119.102Z" fill="black"/>
<path d="M15.0923 2.87754C15.7423 3.45754 16.5823 5.28754 16.9323 6.14754C17.4623 7.43754 17.9723 10.3775 18.7023 11.3575C20.0723 13.1975 28.9123 14.7275 24.8823 19.1075C23.4623 20.6475 19.4223 21.6975 18.7423 22.5675C18.0623 23.4375 17.3523 27.0375 16.8423 28.2775C14.9823 32.8275 11.9923 33.5075 9.8823 28.6575C9.2123 27.1175 8.6223 23.5175 7.5823 22.4775C6.3723 21.2575 1.3323 20.0875 0.962302 18.1175C0.872302 17.6575 0.882302 16.3575 0.932302 15.8675C0.962302 15.6475 2.5123 14.2775 2.8623 14.0475C4.0323 13.2675 7.0023 12.4075 7.7023 11.6475C8.5323 10.7375 9.2823 7.01754 9.8923 5.59754C10.7923 3.47754 12.5623 0.587538 15.0923 2.86754V2.87754ZM13.6723 8.78754C13.3023 8.41754 13.2423 8.90754 13.1123 9.10754C11.9623 10.9175 12.2523 13.5875 10.1123 15.0975C9.2923 15.6775 5.2923 16.8175 7.2923 17.7875C9.5923 18.9075 10.8023 18.9875 11.9323 21.6275C12.2523 22.3775 12.6623 25.2375 13.5423 25.2575C13.8323 25.2575 14.6523 21.1175 15.6723 19.8975C16.6923 18.6775 19.9123 17.6375 19.9123 17.3975C19.8923 16.5375 16.3623 15.2375 15.4523 14.1175C14.4623 12.8875 13.8623 8.98754 13.6623 8.78754H13.6723Z" fill="black"/>
<path d="M30.463 104.277C30.773 104.587 32.483 105.147 33.103 105.507C35.333 106.787 36.983 108.687 34.513 110.837C33.593 111.637 30.653 112.517 30.163 113.227C29.773 113.787 29.183 116.377 28.763 117.317C27.813 119.447 26.253 121.757 23.893 119.447C22.293 117.887 22.353 114.717 21.423 113.437C20.223 111.807 14.413 110.977 15.993 107.527C16.973 105.387 20.283 105.257 21.283 103.837C21.903 102.957 22.383 100.337 23.023 99.0874C25.023 95.2074 27.473 96.6775 28.903 99.9575C29.283 100.837 29.903 103.717 30.463 104.267V104.277ZM25.533 104.347C25.123 104.447 24.953 106.047 24.543 106.607C23.893 107.497 22.633 107.677 21.913 108.457C22.563 109.327 23.583 109.507 24.283 110.317C24.763 110.877 25.253 112.677 25.773 112.567C26.073 112.507 26.903 110.687 27.393 110.187C28.093 109.477 29.033 109.267 29.643 108.447C28.793 107.627 27.773 107.607 27.013 106.587C26.643 106.087 26.133 104.187 25.533 104.337V104.347Z" fill="black"/>
<path d="M82.9631 105.016C82.1131 106.006 80.8931 105.906 79.8531 106.266C77.9731 106.916 75.7131 107.566 73.9331 108.326C73.1031 108.686 70.6431 109.696 70.5931 110.686C70.9431 112.916 70.8731 115.196 71.0731 117.436C71.1431 118.256 71.5631 119.186 71.5731 119.946C71.6231 122.696 67.7931 123.256 66.1231 124.776C64.5631 125.456 62.9831 126.266 61.5131 127.106C60.8131 127.506 61.1331 128.136 59.4731 127.786C58.9431 127.676 57.9831 126.446 57.8531 125.916C57.5731 124.676 57.1531 121.226 57.0931 119.926C57.0131 117.996 58.4031 116.326 60.2131 117.566C61.7531 118.626 60.9931 120.606 61.7231 122.076C62.7031 122.326 66.1431 119.866 67.0931 119.196C67.0631 115.956 66.1131 112.166 66.5531 108.946C66.8831 106.556 71.7531 104.756 73.8031 103.966C76.2131 103.036 78.7231 102.356 81.1931 101.606C82.9831 101.516 84.1331 103.616 82.9431 105.006L82.9631 105.016Z" fill="black"/>
<path d="M1.01144 42.4066C0.871441 42.1666 0.881441 38.3366 1.01144 37.8966C1.23144 37.1166 3.14144 35.2166 3.95144 34.8466C11.1114 31.5566 15.7914 41.9066 9.08144 45.2166C5.93144 46.7666 3.53144 45.4866 1.67144 42.8666C1.49144 42.6166 1.08144 42.5166 1.02144 42.4066H1.01144ZM5.51144 41.4066C7.14144 42.9466 9.54144 39.5566 7.12144 38.4066C5.63144 37.6966 4.14144 40.1166 5.51144 41.4066Z" fill="black"/>
<path d="M14.5116 57.3472C12.7616 55.5072 15.3816 52.5572 17.4316 54.2972C19.5916 56.1372 16.7216 59.6572 14.5116 57.3472Z" fill="black"/>
<path d="M116.112 124.547C116.442 125.357 116.242 127.447 115.312 127.757C115.022 127.857 113.212 127.877 113.022 127.757C112.162 127.217 110.562 119.177 109.942 117.747L109.082 117.147C98.162 117.937 87.602 121.357 77.972 126.347C76.562 127.077 75.612 128.397 73.722 127.757C73.302 127.617 72.512 126.167 72.562 125.697C72.632 124.927 73.732 124.127 74.342 123.717C76.842 122.027 81.672 119.857 84.542 118.697C91.972 115.697 100.042 113.627 108.082 113.297L108.502 112.697L106.182 103.537L105.252 102.697C102.232 102.927 99.172 102.807 96.142 103.097C94.332 103.277 89.602 104.557 88.292 103.707C86.872 102.777 87.442 100.537 89.022 99.9669C90.472 99.4469 95.062 99.0769 96.892 98.8569C97.632 98.7669 99.692 99.0369 100.152 98.3669C100.352 98.0769 99.742 94.5169 99.742 93.7469C99.732 92.4869 99.902 90.5569 100.012 89.2569C100.302 85.6569 100.982 82.0869 101.722 78.5669C101.552 77.8869 94.812 74.3169 93.842 73.4469C91.522 73.7669 90.372 74.9369 87.772 74.5369C85.702 74.2269 79.702 71.1269 82.552 68.8069C84.802 66.9769 86.472 71.2069 90.032 70.2969C94.962 69.0269 97.672 58.2469 96.392 53.9369C94.282 46.7969 84.872 47.5369 83.852 54.6369C83.502 57.0769 84.922 63.0569 81.672 63.4369C80.472 63.5769 74.222 63.5769 73.372 63.2369C72.252 62.7869 72.132 61.5969 72.052 60.5669C71.922 58.9469 71.732 53.5669 74.742 54.8769C76.942 55.8369 75.552 58.6569 76.542 59.3169C76.852 59.5269 79.022 59.5269 79.312 59.3269C79.762 59.0169 79.492 55.9469 79.582 55.0969C79.712 53.8869 80.362 52.8869 80.292 51.6969H80.302C80.402 51.4969 81.802 49.0269 83.832 47.1569C84.322 46.8569 84.792 46.3769 85.242 46.0569C85.342 45.9869 85.452 45.9169 85.562 45.8569C90.492 43.2269 96.092 45.3269 98.962 49.8669C101.902 54.5169 100.962 61.3169 98.882 66.1669C98.592 66.8469 96.762 69.8169 96.762 70.0469C96.762 70.4969 97.342 70.8769 97.682 71.1169C98.142 71.4669 101.912 73.8069 102.172 73.8469C103.072 73.9669 103.162 73.0569 103.372 72.4069C107.942 58.6069 111.572 43.4369 112.242 28.8769C112.432 24.7969 112.392 23.7669 110.232 20.3969C103.752 10.2669 94.542 4.68687 82.412 4.04688C80.332 3.93688 76.502 4.42688 74.742 3.97688C72.882 3.50688 72.932 1.40688 73.812 0.046875H87.282C87.432 0.526875 87.912 0.546875 88.312 0.636875C90.202 1.08687 92.172 1.29688 94.012 1.92687C103.922 5.29688 112.472 14.2069 116.412 23.6969C116.272 34.2369 115.152 44.7569 112.662 54.9969C109.482 68.0569 103.142 81.7969 103.992 95.4969C104.022 96.0169 104.182 97.8669 104.282 98.1969C104.502 98.9069 106.152 98.5169 106.852 98.6269C108.012 98.7969 109.372 100.107 109.792 101.177L116.112 124.547Z" fill="black"/>
<path d="M85.242 46.0566C84.792 46.3766 84.322 46.8566 83.832 47.1566C84.272 46.7566 84.742 46.3766 85.242 46.0566Z" fill="black"/>
</svg>
