<svg width="128" height="114" viewBox="0 0 128 114" fill="none" xmlns="http://www.w3.org/2000/svg">
<path d="M127.887 106.146C127.007 106.486 127.137 107.456 126.737 108.116C124.877 111.246 121.927 113.086 118.287 113.386H9.73719C6.02719 113.066 3.20719 111.256 1.28719 108.116C0.857187 107.426 0.937187 106.686 0.117188 106.026V7.94594C0.947187 7.11594 1.12719 6.10594 1.77719 5.10594C3.56719 2.35594 6.71719 0.755938 9.98719 0.585938L118.537 0.605937C121.227 0.845937 124.467 2.45594 126.067 4.67594C126.737 5.60594 126.887 7.24594 127.897 7.58594V106.146H127.887ZM5.75719 20.0559H122.277C123.167 20.0559 122.647 18.3459 122.637 17.9459C122.587 13.8459 124.067 6.47594 118.297 6.07594L9.02719 6.10594C4.01719 7.40594 5.44719 13.8559 5.39719 17.9459C5.39719 18.5459 4.79719 19.7859 5.75719 20.0559ZM5.75719 25.2959C5.67719 25.4259 5.38719 25.6059 5.38719 25.6659V104.266C5.38719 105.386 8.05719 108.246 9.49719 107.896H118.307C119.837 108.396 122.667 105.466 122.667 104.266V25.6759C122.667 25.6759 122.317 25.3059 122.297 25.3059H5.75719V25.2959Z" fill="black"/>
<path d="M18.5371 62.0348L46.6871 61.9648C48.7971 62.5648 50.6271 64.0948 51.0471 66.3348V95.7948C50.2571 98.2848 48.0971 100.085 45.4371 100.155C37.2771 99.7048 28.5571 100.715 20.4671 100.155C16.8771 99.9048 14.4371 98.3648 14.1071 94.5348C13.3571 85.7748 14.6871 75.9548 14.1071 67.0748C14.4771 64.6248 16.1071 62.6148 18.5371 62.0148V62.0348ZM19.5971 67.4648V94.2848C19.5971 94.2848 19.9471 94.6548 19.9671 94.6548H45.4171C45.4171 94.6548 45.7871 94.3048 45.7871 94.2848V67.5848L19.5871 67.4648H19.5971Z" fill="black"/>
<path d="M67.2576 40.0154C67.5676 40.3154 67.6976 39.9854 67.8176 39.7054C68.6276 37.7554 68.4376 33.8054 70.9976 33.1454C74.9676 32.1154 74.6776 39.0354 75.6176 39.5154C76.0976 39.6054 76.3276 38.6354 76.4176 38.3254C76.8576 36.7954 76.5076 35.0554 77.8276 33.8654C78.9776 32.8254 80.2776 32.8054 81.3976 33.8654C82.4376 34.8554 82.3076 35.7554 82.1676 37.0754C81.6876 41.5254 79.8976 46.6054 79.2376 51.1054C75.0276 57.0154 72.5776 49.2254 72.0076 45.4954C70.6076 45.3154 71.1876 46.5054 70.9576 47.3154C70.5376 48.7454 69.7676 51.6054 68.6476 52.4954C67.1676 53.6654 65.1876 53.1654 64.2676 51.6254C63.5976 50.5054 62.4276 43.8354 62.0876 42.0754C61.8276 40.6754 60.8476 36.2454 61.0776 35.2054C61.6376 32.6854 65.1276 32.1854 66.1976 34.9654C66.5676 35.9154 66.9576 39.7154 67.2676 40.0154H67.2576Z" fill="black"/>
<path d="M63.6872 94.7162L111.297 94.6562C115.037 95.7363 114.437 99.7562 110.537 100.146H65.3672C61.6872 100.276 60.1672 96.4262 63.6772 94.7162H63.6872Z" fill="black"/>
<path d="M63.6979 62.0348L111.048 61.9648C114.338 62.3648 114.798 66.4548 111.548 67.2148H63.8779C60.9779 66.6748 60.9979 63.0448 63.6979 62.0348Z" fill="black"/>
<path d="M62.6092 73.5453C62.8592 73.3253 63.1492 73.1553 63.4592 73.0253L111.569 72.9453C114.249 73.7353 114.579 76.5953 112.119 78.0053C96.1792 78.4453 80.1292 78.0653 64.1492 78.1953C61.9092 77.8653 60.8592 75.1253 62.6192 73.5353L62.6092 73.5453Z" fill="black"/>
<path d="M34.8191 50.6264C34.2491 54.0664 29.7191 54.2464 29.3191 49.6364C29.0291 46.2764 29.0291 40.0064 29.3191 36.6464C29.5291 34.2364 31.0991 32.0064 33.5491 33.6764C35.3091 34.8764 38.4491 41.1064 39.4291 41.5164C40.2091 41.8364 39.5491 39.4464 39.5391 39.1564C39.4791 37.6564 39.3191 35.3064 40.2791 34.1364C42.1791 31.8464 44.7991 33.5964 45.0491 36.1364C45.3591 39.3264 45.4091 47.2464 45.0491 50.3764C44.8991 51.6364 43.4891 53.0664 42.1791 53.0064C39.5491 52.8864 37.1191 47.0264 35.4291 45.2564C35.2191 45.1664 34.8091 45.5564 34.8091 45.6264C34.8091 47.0464 35.0191 49.3464 34.8091 50.6164L34.8191 50.6264Z" fill="black"/>
<path d="M90.4569 38.5252C90.1369 39.9652 92.5769 40.2252 93.7869 40.8052C95.9769 41.8552 98.1569 43.2152 98.4369 45.8852C99.2269 53.3152 89.3569 55.3652 84.8369 50.5052C83.4969 49.0652 83.1269 47.1052 85.0769 45.9952C87.3469 44.7052 88.5169 47.3452 90.3869 47.6952C91.3369 47.8752 93.7369 47.7252 92.9069 46.2952C92.5869 45.7452 88.2869 44.5152 87.3769 43.9752C82.0669 40.8352 84.8769 33.4752 90.5669 33.0152C93.1469 32.8052 99.2369 34.7852 97.2969 38.2452C95.5369 41.3852 92.8569 37.9952 90.4569 38.5152V38.5252Z" fill="black"/>
<path d="M57.3996 47.7551C60.1196 48.3051 60.2396 52.3351 57.5396 53.1351C56.5496 53.4251 51.8796 53.3651 50.7296 53.1851C49.0596 52.9251 48.1896 51.7951 48.0296 50.1451C47.7496 47.2951 47.6396 38.5951 48.0596 35.9251C48.2196 34.9251 49.0196 33.6751 50.0296 33.4051C50.9796 33.1551 56.6196 33.1151 57.5896 33.3351C60.1596 33.9151 60.2796 38.0551 57.1196 38.4951C55.7196 38.6951 53.3996 37.7951 53.4996 39.6451C53.5796 41.0851 55.4596 40.3751 56.6196 40.5351C59.2296 40.8951 60.1896 44.1751 57.6496 45.5151C56.3296 46.2151 54.3896 45.7451 53.7696 46.1251C53.2396 46.4451 53.1196 47.7451 53.6496 47.7451C54.6696 47.7451 56.5296 47.5751 57.3896 47.7451L57.3996 47.7551Z" fill="black"/>
<path d="M98.6267 83.7464C100.397 83.3864 109.317 83.4564 111.227 83.7464C114.587 84.2664 114.737 88.6864 111.017 89.1364C108.937 89.3864 100.497 89.4864 98.6267 89.1064C95.6667 88.5064 95.6967 84.3264 98.6267 83.7264V83.7464Z" fill="black"/>
<path d="M63.947 83.7462C65.517 83.4262 74.927 83.4462 76.557 83.7462C79.887 84.3462 79.627 88.7262 76.847 89.1662C75.117 89.4362 65.567 89.4562 63.947 89.1262C60.987 88.5262 61.017 84.3462 63.947 83.7462Z" fill="black"/>
<path d="M87.6547 83.7459C89.5847 83.6359 91.1247 86.0258 89.9647 87.8058C87.6447 91.3458 83.0247 86.9858 86.0847 84.4158C86.5447 84.0258 87.0648 83.7759 87.6648 83.7459H87.6547Z" fill="black"/>
<path d="M73.6862 10.3962L112.546 10.3262C116.566 10.7562 116.336 15.4562 112.546 15.8162H74.1262C70.2162 15.4162 69.8962 11.1762 73.6862 10.3962Z" fill="black"/>
<path d="M45.7374 10.3955C48.2574 10.0255 52.0674 10.2355 51.5274 13.6855C51.1474 16.0855 47.5374 16.0455 45.6974 15.7955C42.0274 15.2955 41.7874 10.9755 45.7374 10.3955Z" fill="black"/>
<path d="M15.0453 10.385C17.1953 10.025 21.6753 10.295 21.3053 13.375C20.9953 15.945 17.2153 16.055 15.2553 15.785C11.7053 15.305 11.6553 10.945 15.0453 10.375V10.385Z" fill="black"/>
<path d="M30.5154 10.3957C31.9854 10.1757 35.7354 10.2157 36.2654 12.0057C37.3654 15.7457 33.1154 16.1557 30.4754 15.7957C26.9454 15.3157 26.7254 10.9557 30.5154 10.3957Z" fill="black"/>
<path d="M25.9264 89.3367C25.2364 88.6167 24.9464 87.7967 24.8464 86.8067C24.5664 84.1267 24.5364 77.7267 24.8464 75.0867C25.2064 71.9567 28.4064 70.5667 31.2164 71.7167C32.8364 72.3767 41.3264 77.1567 42.1764 78.2267C44.0164 80.5367 43.3564 82.9367 41.1464 84.6567C39.5864 85.8667 32.1264 90.1167 30.3964 90.6167C28.6664 91.1167 27.1464 90.6167 25.9364 89.3467L25.9264 89.3367ZM30.0764 77.8267C29.8064 78.7767 30.0764 82.9467 30.0764 84.3167C30.0764 85.3867 31.9364 83.7667 32.1464 83.6467C33.4264 82.9267 34.7364 82.1967 36.0664 81.5867C36.9764 80.2167 35.4664 80.2967 34.5864 79.8067C33.8264 79.3767 31.4164 77.6467 30.8964 77.5067C30.5564 77.4067 30.1464 77.5467 30.0664 77.8367L30.0764 77.8267Z" fill="black"/>
</svg>
