<svg width="123" height="128" viewBox="0 0 123 128" fill="none" xmlns="http://www.w3.org/2000/svg">
<path d="M90.912 127.902H84.922C83.592 126.622 81.292 126.622 79.572 126.142C71.732 123.952 63.932 121.812 56.092 119.682C39.792 118.722 22.092 120.922 5.96203 119.662C2.79203 119.412 1.34203 118.472 0.612031 115.282L0.582031 28.2016C0.942031 25.9216 1.93203 23.8816 4.46203 23.6016C18.692 22.8216 34.042 24.6416 48.142 23.6116C49.562 23.5116 50.362 23.5916 50.872 22.1016C52.652 16.9616 53.492 8.30159 56.192 3.96159C57.002 2.66159 60.242 0.261593 61.592 0.131593C66.412 -0.348407 71.532 2.11159 76.142 3.32159C86.122 5.96159 96.132 8.58159 106.082 11.3116C111.032 12.6716 119.262 13.1716 121.752 18.3516C121.972 18.8116 122.832 21.1416 122.872 21.5016C122.932 22.0616 122.442 22.4716 122.382 22.9916C121.392 31.9816 117.792 41.6716 115.442 50.4916C109.522 72.7616 103.962 95.1916 97.492 117.372C96.602 120.422 96.712 123.082 94.152 125.502C93.132 126.472 91.812 126.862 90.932 127.902H90.912ZM103.382 37.2016C102.932 38.7916 103.722 42.4816 103.382 44.3116C99.932 44.8016 100.042 40.1116 97.732 38.8516C96.982 38.4416 92.602 37.1216 92.152 37.5716L92.402 52.5416C92.062 52.8716 89.312 52.0816 88.832 51.7416C88.412 51.4516 87.702 49.0816 87.482 48.3516C86.512 45.1616 85.572 41.9616 84.592 38.7616C84.322 37.8816 84.092 35.9116 83.782 35.3216C83.422 34.6316 82.102 34.6516 81.412 34.4416C80.562 34.1916 79.822 33.1216 79.282 34.5516L79.182 66.1116C79.552 68.5316 83.762 66.7116 83.412 69.6116C82.792 70.8416 82.082 76.4116 80.982 76.6916C80.272 76.8716 79.412 75.9816 79.182 77.6216C78.572 88.5416 79.922 100.222 79.172 111.052C78.952 114.192 77.372 116.672 74.752 118.362C74.392 118.592 72.522 119.102 72.922 119.652L87.772 123.392C92.852 123.362 93.442 115.052 94.452 111.362C101.412 85.9416 108.312 60.4716 114.952 35.0516C115.842 31.6416 117.562 26.9816 118.022 23.6516C118.302 21.6416 118.052 20.1916 116.352 18.9616C114.402 17.5616 107.332 16.3016 104.562 15.5316C94.132 12.6716 83.702 9.66159 73.232 6.94159C71.332 6.45159 65.282 4.63159 63.822 4.62159C62.282 4.62159 61.122 5.33159 60.212 6.50159C58.572 8.59159 57.702 14.3916 56.952 17.2116C56.682 18.2316 54.942 22.6516 55.502 23.3116C56.032 23.9316 69.262 23.4216 71.322 23.5816C75.142 23.8816 75.602 25.6116 77.912 27.7216C79.192 28.8916 82.982 29.2616 84.732 29.7816L85.532 29.3316L97.262 18.3616C97.612 18.0716 97.952 17.8116 98.442 17.9116C98.652 17.9516 101.022 18.7616 101.102 18.8816C101.212 19.0416 101.152 19.4716 101.072 19.6816C100.332 21.2816 93.712 31.0716 93.922 31.9116C94.002 32.2316 94.302 32.4016 94.582 32.5216C95.162 32.7716 99.012 33.8116 99.512 33.8016C100.562 33.7716 102.852 31.6416 104.052 31.3916C105.542 31.0816 107.232 31.1616 106.422 33.0216C106.082 33.8116 103.492 36.7516 103.372 37.2016H103.382ZM6.25203 27.9016C5.76203 28.0616 5.12203 28.3816 5.09203 28.9516L5.18203 114.422L6.06203 115.062L69.592 115.192C72.952 114.862 74.492 113.112 74.952 109.832V33.1916C74.542 29.9916 73.022 28.3716 69.832 27.8316L6.25203 27.8916V27.9016Z" fill="black"/>
<path d="M38.4642 36.6502C54.6042 35.3702 68.2543 50.4602 65.9443 66.3802C61.7843 95.0602 20.7642 96.4702 14.4242 69.0202C10.7142 52.9502 21.8843 37.9702 38.4543 36.6502H38.4642ZM45.0042 52.7902C45.0042 52.3502 45.0442 51.9102 44.9442 51.4702C44.6642 50.2702 43.6342 47.5202 43.1242 46.3002C42.8542 45.6502 40.8042 41.5802 40.5042 41.4302C38.5243 40.4502 37.6943 45.1402 36.6343 46.2902L34.8143 52.2102C35.0143 53.3202 35.5343 52.7902 35.8843 52.7902H44.9942H45.0042ZM33.2743 42.5702C28.1543 43.7702 23.3142 48.1002 21.0542 52.8002C22.4842 52.6702 29.3342 53.1602 29.9742 52.5002C30.4842 51.9802 31.1943 47.9202 31.5142 46.9302C31.7143 46.3102 33.5343 42.8102 33.2743 42.5802V42.5702ZM58.7243 52.7902C58.9543 52.4602 57.1842 49.7602 56.8342 49.3102C55.1442 47.1702 51.1742 44.0602 48.6642 43.0102C48.2743 42.8502 46.8642 42.3002 46.7442 42.9402L50.0042 52.6602L50.6042 52.9202L58.7243 52.7802V52.7902ZM28.6542 57.5302H19.1742C18.9442 57.5302 18.6542 58.4802 18.6142 58.7102C18.2542 60.7002 18.2242 64.3702 18.5642 66.3702C18.7942 67.6802 19.3942 68.1502 20.6542 68.2702C22.4542 68.4302 25.8542 68.4202 27.6642 68.2702C30.0142 68.0702 29.0342 67.0602 29.0142 65.4002C28.9942 63.6502 29.0242 61.8902 29.0142 60.1402C29.0142 59.6002 29.5242 57.8102 28.6542 57.5302ZM45.9442 57.8402C45.5142 57.2302 35.4942 57.5802 34.0142 57.6602C33.8242 57.8202 33.7043 58.0402 33.6343 58.2702C33.3643 59.1002 33.3642 66.0202 33.5142 67.1502C33.6442 68.1602 33.9543 68.1902 34.8843 68.2802C37.3943 68.5202 42.0742 68.4602 44.6442 68.2802C46.1442 68.1702 46.1542 67.8802 46.2642 66.4102C46.3542 65.2202 46.3742 58.4502 45.9543 57.8502L45.9442 57.8402ZM51.1143 57.5302C49.6842 59.3902 51.2342 61.5702 51.0042 63.9102C50.9342 64.6002 49.7643 68.2602 51.1143 68.2602H60.3442C61.0542 68.2602 61.4643 64.1602 61.4743 63.4102C61.4943 62.4902 61.2243 57.5302 60.3442 57.5302H51.1143ZM29.6542 72.7602H21.2942C21.2142 73.7202 22.0942 74.9602 22.6842 75.7402C25.0842 78.9102 29.0242 82.0202 32.8942 83.0002C33.4842 83.0202 31.4643 78.4402 31.3442 78.0602C31.0642 77.2002 30.2342 72.9402 29.6542 72.7602ZM35.3942 72.7602C34.9542 73.0502 35.0042 73.3902 35.0342 73.8502C35.1842 76.0002 37.5443 81.2002 38.7243 83.1602C39.1743 83.9102 39.8242 85.2302 40.7743 84.1302C40.9443 83.9302 42.9243 80.0002 43.1343 79.5002C43.8542 77.7402 44.1742 75.4002 45.0042 73.6202C45.1143 73.3502 44.8242 72.7702 44.6242 72.7702H35.3942V72.7602ZM50.1642 72.8102C49.8542 72.9002 49.6343 73.1302 49.5443 73.4402C49.2943 75.1502 48.8543 77.0702 48.3143 78.7002C47.6043 80.8402 44.7342 84.5702 49.4942 82.1302C51.8542 80.9202 54.7642 78.6602 56.4642 76.6202C57.0742 75.8902 59.4943 73.0702 57.8442 72.7602C57.1143 72.6202 50.7443 72.6402 50.1642 72.8102Z" fill="black"/>
<path d="M60.6703 102.002C62.4803 101.942 61.0803 104.852 61.4603 106.062C61.2903 107.122 60.3603 106.442 59.6003 106.422C45.8503 106.062 32.0203 106.802 18.2803 106.322C18.0003 106.122 17.6203 102.182 18.6703 102.192C32.6603 102.082 46.7103 102.432 60.6703 101.992V102.002Z" fill="black"/>
<path d="M91.6525 88.4816L84.1125 117.482C84.0325 118.582 80.4025 117.412 80.0725 117.192C79.2225 116.612 80.6825 113.422 80.8525 112.722C82.8325 104.482 85.0425 96.3616 87.2325 88.1616C87.9525 86.5516 90.2925 88.5516 91.6525 88.4816Z" fill="black"/>
<path d="M94.0916 79.9328C93.5416 80.5028 90.1516 79.4728 89.9516 78.8228C89.4916 77.2928 91.7816 72.6028 91.9116 70.7728C92.1716 70.5228 95.9516 71.4428 96.1116 71.9228C96.4716 72.9728 95.6916 73.5328 95.5116 74.2528C95.2916 75.1828 94.5216 79.4828 94.0816 79.9328H94.0916Z" fill="black"/>
<path d="M83.3006 56.8828C83.4506 56.8828 86.0006 57.6028 86.1606 57.6828C86.3906 57.7928 86.8406 58.2428 86.9006 58.4728C86.9506 58.6828 85.9906 62.2128 85.2506 62.2628C84.2906 61.6528 81.8206 61.8728 81.5406 60.7928C81.5006 60.6328 82.2306 57.7228 82.3206 57.5528C82.4606 57.2828 83.0106 56.8928 83.3106 56.8928L83.3006 56.8828Z" fill="black"/>
<path d="M102.384 66.5216C100.794 66.8516 99.6539 65.6716 98.1439 65.7716C97.9039 64.5116 98.4639 63.6616 98.8339 62.5816C98.9339 62.2716 98.8139 61.7716 98.9339 61.5716C99.2539 61.0616 102.944 61.8816 103.284 62.5316C103.764 63.4616 102.064 65.4316 102.394 66.5216H102.384Z" fill="black"/>
<path d="M91.0718 59.3214C91.7818 59.0814 94.7218 59.7814 95.0318 60.5414C95.1518 60.8314 94.1218 64.0214 93.9018 64.1514C93.2318 64.5414 90.3218 63.8614 90.0218 63.2814C89.6618 62.5714 90.3818 59.5514 91.0618 59.3214H91.0718Z" fill="black"/>
</svg>
