<svg width="114" height="128" viewBox="0 0 114 128" fill="none" xmlns="http://www.w3.org/2000/svg">
<path d="M15.5494 127.972C14.3194 126.772 12.4994 126.452 10.9794 125.432C7.98937 123.422 6.09937 119.822 5.34937 116.342L5.31937 55.2423C3.58937 46.2023 -3.24063 35.7423 3.69937 27.4123C7.97937 22.2723 17.1094 21.1923 23.3494 19.3623C44.0294 13.2923 65.0894 7.73227 85.6594 1.34227C86.5194 1.07227 87.2994 0.302269 88.0194 0.202269C103.879 -1.92773 105.449 13.2123 108.849 24.5623C109.519 28.4523 106.639 28.1723 104.069 28.9823C79.6094 36.7723 54.6194 42.9823 30.0694 50.5423L28.2694 51.6123H110.729C111.489 51.6123 113.239 53.5123 113.109 54.4723V115.602C112.759 119.182 110.039 123.552 107.089 125.562C105.659 126.532 103.989 126.772 102.869 127.952H67.9394C67.6894 127.192 66.4194 126.272 66.4994 125.372C66.5494 124.772 67.5194 123.142 68.3294 123.222H97.2694C100.229 122.582 103.329 122.362 105.499 119.972C106.039 119.382 107.859 116.222 107.859 115.592V80.5323L10.6494 80.5123L10.2894 81.6423C10.8594 91.9123 9.57937 102.922 10.2894 113.102C10.7594 119.722 14.3594 122.462 20.6794 123.172L50.0494 123.242C52.2994 124.142 51.5694 126.362 50.4794 127.932H15.5494V127.972ZM80.0794 13.7823C84.4994 18.0623 88.8294 22.4323 93.3194 26.6323C94.1394 26.8523 98.3694 25.2723 99.5194 24.9323C100.299 24.7023 102.889 24.4123 103.099 23.7523L99.7394 11.4623C97.0794 5.91227 92.9694 4.59227 87.0994 6.02227L76.3194 9.21227C75.8194 9.46227 75.8894 9.83227 76.1694 10.2623C77.4694 11.4023 78.8394 12.5723 80.0794 13.7723V13.7823ZM77.2594 18.5923C74.7894 16.2223 72.4294 13.5723 69.7994 11.4423C69.2194 11.3323 66.8194 11.8223 66.1394 12.0123C65.7994 12.1023 65.5294 12.4823 65.1994 12.5723C64.2894 12.8223 57.2494 14.5823 57.2194 15.0623C62.5194 20.8623 68.5594 26.0123 74.0394 31.6723C75.4794 32.5023 80.5394 30.4623 82.2994 29.9323C84.0594 29.4023 85.7194 29.5023 87.1394 28.3023C84.0994 24.8623 80.5694 21.7923 77.2494 18.6023L77.2594 18.5923ZM64.2894 29.5623C59.8794 25.2823 55.5294 20.9223 50.9794 16.7823C50.0194 16.5123 46.5194 18.0123 45.2894 18.3623C43.6994 18.8023 42.4094 19.0923 40.7994 19.6123C39.8994 19.9023 38.7794 19.7323 38.2594 20.5823L55.8394 37.4223L68.0894 34.1723C68.4994 33.8723 68.4594 33.4923 68.1994 33.0923C66.8594 31.9723 65.5394 30.7823 64.2894 29.5723V29.5623ZM32.9194 22.7623C32.5794 22.4823 32.1794 22.1523 31.6994 22.2223L19.7794 25.6723C19.6894 26.2623 20.0994 26.7123 20.4294 27.1423L36.9794 42.7823C38.2394 43.2023 42.8194 41.3723 44.3694 40.9023C45.3194 40.6123 46.4494 40.5723 47.2794 40.3223C47.4894 40.2523 49.2894 39.4923 49.3594 39.4023C49.5594 39.1523 49.4494 38.8823 49.3594 38.6223C49.1494 37.9923 45.1394 34.6823 44.3394 33.9023C41.7494 31.3923 39.1494 28.9623 36.5194 26.5023C35.3394 25.4023 34.0994 23.7323 32.9094 22.7523L32.9194 22.7623ZM15.3894 29.5623C14.4094 28.6923 13.7894 27.3823 12.2994 27.7823C8.86937 28.6923 6.25937 32.2123 5.61937 35.5923C5.38937 36.8023 6.31937 38.0623 6.16937 39.4123L9.46937 50.6323C10.4094 51.1623 12.3794 50.1623 13.4294 49.8923C14.8294 49.5223 16.1394 49.0723 17.4694 48.6923C21.8994 47.4423 26.3694 46.3223 30.7394 44.8723L30.5194 44.0023C25.3194 39.3723 20.5794 34.1823 15.3794 29.5723L15.3894 29.5623ZM10.9294 56.8623C10.4894 57.2423 10.3694 57.6723 10.2994 58.2323C9.72937 63.0923 10.7394 68.9923 10.2994 73.9723C10.4394 75.0023 10.9494 75.2523 11.9194 75.3423C13.7894 75.5223 18.0694 75.5323 19.9194 75.3223C21.5394 75.1423 21.9294 74.3823 22.7394 73.1523C25.8094 68.4823 28.1194 62.9223 31.3294 58.2823C31.6494 57.9623 31.5494 56.8523 31.1494 56.8523H10.9294V56.8623ZM38.1294 56.8623L28.0094 74.4523C28.0594 75.1423 29.0994 75.2723 29.6494 75.3323C31.9794 75.5723 37.3394 75.5923 39.6494 75.3523C40.5494 75.2623 41.1694 74.9323 41.7194 74.1723C43.6994 71.4423 45.7894 66.8523 47.5394 63.7723C48.0394 62.8923 51.2494 57.9023 51.2394 57.4723C51.2394 57.2423 50.9994 56.8623 50.8594 56.8623H38.1294ZM47.5094 75.0523C47.6094 75.1923 48.5694 75.3123 48.8494 75.3323C51.6494 75.5323 56.5894 75.5823 59.3494 75.3323C59.7794 75.2923 60.1894 75.3123 60.5594 75.0423L70.4994 58.0223C70.9194 57.2723 70.2894 56.9323 69.5794 56.8423C67.5294 56.5723 60.3694 56.5723 58.3294 56.8423C58.0594 56.8823 57.7894 56.8723 57.5694 57.0823L47.6194 74.0823C47.4794 74.3223 47.3694 74.8423 47.5094 75.0423V75.0523ZM90.1494 56.8623H77.5494C73.5694 62.4823 70.4894 68.7623 66.9594 74.6823C67.0694 74.9423 67.3194 74.9923 67.5494 75.0923C68.4794 75.5023 77.0494 75.4723 78.5594 75.3323C79.2394 75.2723 79.9194 75.1323 80.4294 74.6323L90.0094 58.0923L90.1494 56.8523V56.8623ZM107.869 74.7023V57.2323C107.869 57.2323 107.519 56.8623 107.499 56.8623H97.0194C95.9194 57.8623 95.3994 59.5023 94.6594 60.7423C92.3494 64.5923 90.1794 68.5523 87.8694 72.4123C87.0594 73.7623 85.0194 75.1423 87.7794 75.3423C93.9094 75.7823 100.569 74.9723 106.769 75.3423C107.119 75.3923 107.799 75.0023 107.879 74.7023H107.869Z" fill="black"/>
<path d="M60.457 127.972H57.957C53.207 123.102 62.637 121.002 61.397 126.302C61.237 127.002 60.517 127.262 60.447 127.972H60.457Z" fill="black"/>
<path d="M50.8978 86.3515C51.7678 86.1515 52.9578 86.2515 53.7778 86.6115L75.1478 98.9215C76.9978 100.382 76.8978 102.332 75.0078 103.712C72.4978 105.552 68.4378 107.402 65.6178 109.042C63.3578 110.362 61.0778 111.642 58.7878 112.932C55.4578 114.812 49.8078 120.002 49.2178 112.612C49.6978 105.182 48.5978 96.9915 49.2278 89.6515C49.3278 88.4915 49.5778 86.6315 50.8978 86.3315V86.3515ZM54.8678 93.5515C54.4678 93.6815 54.4978 94.0515 54.4578 94.3915C54.1178 97.3315 54.1878 104.372 54.4578 107.392C54.5278 108.192 54.6778 109.322 55.7078 108.882L68.0778 101.782C68.2478 101.522 68.2478 101.292 68.0778 101.022C67.6778 100.382 62.1878 97.6815 61.0778 97.0415C59.4678 96.1215 57.3278 94.4115 55.7178 93.6715C55.4378 93.5415 55.1878 93.4615 54.8778 93.5615L54.8678 93.5515Z" fill="black"/>
</svg>
