<svg width="129" height="128" viewBox="0 0 129 128" fill="none" xmlns="http://www.w3.org/2000/svg">
<path d="M4.88891 0.0527344L5.94891 1.61273C6.45891 10.7727 5.86891 20.0827 6.24891 29.2527C6.57891 29.7727 7.29891 29.2227 7.76891 29.2327C8.66891 29.2527 9.73891 29.9127 10.1289 28.6227V2.92273C10.1289 1.73273 10.9989 1.05273 11.3789 0.0527344H14.3689C14.7489 1.05273 15.6289 1.73273 15.6189 2.92273V28.6227C16.0089 29.9127 17.0689 29.2527 17.9789 29.2327C18.4489 29.2227 19.1689 29.7727 19.4989 29.2527C19.8889 20.0727 19.2889 10.7627 19.7989 1.61273L20.8589 0.0527344H23.8489L24.9089 1.61273C25.4189 10.7727 24.8289 20.0827 25.2089 29.2527C25.5389 29.7727 26.2589 29.2227 26.7289 29.2327C27.6289 29.2527 28.6989 29.9127 29.0889 28.6227V2.92273C29.0889 1.73273 29.9589 1.05273 30.3389 0.0527344H33.3289C33.7689 1.11273 34.6689 1.87273 34.5889 3.16273C34.0889 12.9727 35.2189 23.3727 34.5789 33.1127C34.2489 38.0227 32.3889 41.9527 28.5989 45.0927C27.4789 46.0127 26.0989 46.5227 25.1389 47.6327C25.6389 71.6927 25.2189 95.8427 25.3489 119.943C25.1289 122.873 24.4489 124.413 22.2289 126.303C22.0089 126.493 20.1389 127.813 19.9989 127.823C14.7489 128.433 11.0789 126.483 9.89891 121.173V47.8227L9.39891 46.8227C4.96891 44.6927 2.46891 40.8627 0.908906 36.3427L0.878906 1.41273L1.89891 0.0527344H4.88891ZM28.5989 34.7327H6.75891C5.84891 34.7327 6.97891 37.2027 7.15891 37.5727C7.77891 38.8027 9.52891 40.8427 10.6889 41.5427C12.8589 42.8527 14.9589 42.4427 15.3389 45.6127V120.703C15.9589 123.343 19.5389 123.153 19.8589 120.443V44.8527C21.0089 42.1827 24.0789 42.2827 26.1889 40.2027C26.8789 39.5227 29.6789 35.4627 28.5889 34.7427L28.5989 34.7327Z" fill="black"/>
<path d="M124.659 0.0529687H128.649V123.063C127.439 124.433 125.179 127.563 123.299 127.813C122.599 127.903 119.159 127.913 118.599 127.743C117.609 127.453 115.069 125.053 114.489 124.113C113.909 123.173 113.509 121.553 113.419 120.443V83.763C109.149 78.963 105.389 76.613 104.939 69.543C105.359 58.583 104.419 47.263 104.939 36.333C105.639 21.573 112.159 9.37297 124.039 0.782969C124.339 0.562969 124.789 0.602969 124.659 0.0429688V0.0529687ZM121.069 10.443C105.259 27.323 111.779 48.753 110.429 69.803C110.339 75.703 117.159 77.713 118.859 82.583L118.909 120.703C119.579 123.243 122.759 123.243 123.429 120.703C124.079 83.963 122.519 47.123 123.399 10.393C123.409 9.83297 123.989 8.08297 123.039 8.28297C122.899 8.31297 121.359 10.123 121.069 10.433V10.443Z" fill="black"/>
<path d="M88.321 37.383C105.731 52.753 103.981 80.273 84.811 93.323C62.691 108.383 32.041 94.293 29.341 67.793C26.061 35.593 63.781 15.723 88.321 37.383ZM87.131 84.293C104.101 65.483 91.841 35.263 66.641 33.733C41.161 32.193 25.371 61.013 40.361 81.713C51.501 97.093 74.381 98.413 87.131 84.283V84.293Z" fill="black"/>
<path d="M101.87 94.2843C101.14 95.2943 99.1005 97.3243 98.1305 98.2743C83.2505 112.784 59.3805 116.264 41.2005 105.604C39.2805 104.474 35.8805 102.344 38.6005 100.004C40.7105 98.1943 42.9505 100.574 44.8105 101.494C61.9805 110.004 81.3805 107.324 95.0705 93.8443C96.0805 92.8443 97.0805 91.3343 98.0805 90.3743C100.81 87.7343 104.57 90.5743 101.87 94.2943V94.2843Z" fill="black"/>
<path d="M94.1298 26.0933C95.3398 27.0233 99.6698 30.8433 100.05 32.0233C100.58 33.7133 99.3698 35.4833 97.5898 35.4833C95.8098 35.4833 92.5298 31.6333 90.9498 30.3933C80.2098 21.9733 65.0698 19.1833 51.9998 23.3333C49.8598 24.0133 47.6998 25.3433 45.6998 26.0233C42.7998 27.0033 40.3298 24.2533 42.3598 21.9333C43.5098 20.6233 48.9098 18.6633 50.7498 18.0933C65.5498 13.5633 81.9398 16.7133 94.1298 26.1033V26.0933Z" fill="black"/>
<path d="M32.7478 93.1933C36.0978 93.0233 36.5678 98.6133 32.9578 98.6133C29.5478 98.6133 29.3278 93.3633 32.7478 93.1933Z" fill="black"/>
<path d="M51.2069 45.3743C52.8069 44.1943 57.1869 40.8643 58.8969 43.4843C61.1369 46.9243 55.5869 48.5043 53.5669 50.1043C48.5969 54.0343 47.8569 58.1843 47.0369 64.0343C46.5469 67.5543 41.5469 67.1043 41.5469 63.5643C41.5469 56.4043 45.5969 49.5143 51.2069 45.3743Z" fill="black"/>
<path d="M64.4683 40.7732C68.4483 40.2732 68.0283 47.4032 63.8983 45.9832C61.0583 45.0032 61.7083 41.1232 64.4683 40.7732Z" fill="black"/>
</svg>
