<svg width="113" height="128" viewBox="0 0 113 128" fill="none" xmlns="http://www.w3.org/2000/svg">
<path d="M82.7476 0.108125C84.7476 1.18813 87.1376 1.36812 89.3076 2.15812C104.438 7.72813 115.328 25.8481 111.168 41.8681C109.858 46.9181 104.328 49.8781 99.3576 48.2381C95.8176 47.0781 94.8276 43.7081 90.5276 44.6781C87.7876 45.2981 86.0676 48.0981 86.5076 50.8581C86.8476 52.9781 89.5876 55.0081 90.3076 57.2781C91.8276 62.0581 89.2876 67.2881 84.5376 68.8781C81.9476 69.7381 80.6276 69.9781 80.5176 66.7981C80.4576 64.9881 82.4676 65.3881 83.7176 64.8181C86.4776 63.5681 87.3276 60.2681 85.9476 57.6481C85.2476 56.3381 83.9176 55.4481 83.3076 54.0481C80.5176 47.7281 84.8676 40.2581 91.8576 40.2581C95.5776 40.2581 96.7476 42.1181 99.3876 43.7081C102.398 45.5181 106.308 44.2981 107.148 40.8181C108.918 33.4581 106.888 24.5681 102.928 18.2181C97.3776 9.33813 87.1976 4.06812 76.7776 3.94812C75.8676 3.50812 76.4276 1.00813 76.2776 0.078125H82.7676L82.7476 0.108125Z" fill="black"/>
<path d="M72.5184 0.107891C72.6184 1.07789 73.7384 3.44789 72.9084 4.11789C72.3984 4.52789 68.3484 5.13789 67.2784 5.46789C48.4384 11.3679 40.2984 34.5379 50.7184 51.2179C56.1884 59.9679 64.5884 64.3979 74.6684 65.6879C75.3384 65.7779 76.5384 65.5579 77.0084 65.8379C77.6984 66.2479 77.6784 69.8579 76.3984 69.9379C55.6084 68.9779 40.5884 52.3079 42.0784 31.4079C42.9584 19.0379 52.7884 6.34789 64.3984 2.07789C66.1484 1.43789 68.0484 1.23789 69.7784 0.717891C70.1784 0.597891 70.6084 0.557891 70.7784 0.0878906H72.5284L72.5184 0.107891Z" fill="black"/>
<path d="M54.7995 72.719V67.599C54.7995 66.789 58.3695 66.759 58.6795 67.209C59.1395 67.869 58.4795 71.269 58.8295 72.299C58.9995 72.789 61.6695 73.989 62.3795 74.739C64.2195 76.679 64.2795 80.089 62.6295 82.169C61.8195 83.189 59.9595 84.439 58.6595 84.439H46.6795C46.5195 84.439 46.3195 84.839 46.2995 85.059C46.2395 85.619 48.2795 90.549 48.7995 90.799C49.9995 91.379 54.6995 90.609 56.4095 90.919C57.4495 91.109 57.1095 94.579 56.7995 94.799C55.9195 95.409 50.1595 94.079 50.3295 95.739C51.4195 97.929 52.4195 100.209 53.3395 102.469C55.2995 107.289 57.5395 112.349 59.3295 117.189C59.4495 117.529 60.0295 119.099 60.0295 119.249C60.0295 119.869 56.9095 121.219 56.3195 120.829L45.6995 95.139C45.4895 94.929 45.2195 94.929 44.9395 94.899C42.9195 94.629 37.8195 94.729 35.6895 94.899C33.2595 95.099 34.0495 95.409 34.0895 97.019C34.2795 104.389 33.9695 111.799 34.0195 119.179C34.1395 120.919 30.3195 120.769 29.9495 119.629L29.8695 95.319C29.6995 95.089 28.3595 94.929 27.9795 94.909C26.3995 94.799 19.5595 94.699 18.4695 95.149C18.1795 95.269 17.9095 95.379 17.7495 95.679C14.4395 103.499 11.6095 111.559 8.22951 119.339C7.92951 120.029 7.66951 120.909 6.75951 120.889C6.26951 120.889 3.35951 119.739 3.93951 118.809L13.3995 95.539C13.4595 95.149 13.3295 95.209 13.0795 95.099C11.6595 94.469 7.90951 95.449 7.13951 94.799C6.79951 94.509 6.76951 91.789 6.92951 91.339C7.04951 90.979 7.51951 90.859 7.85951 90.819C9.50951 90.629 13.9695 91.459 15.2295 90.659C16.0295 90.149 16.0395 88.809 16.3695 88.049C16.8495 86.919 17.7195 85.819 17.6295 84.439H5.01951C4.80951 84.439 3.31951 83.869 3.01951 83.699C-0.960492 81.559 -0.970492 76.089 2.77951 73.709C3.34951 73.349 4.97951 72.869 5.11951 72.289C5.19951 71.939 4.89951 71.329 4.88951 70.849C4.87951 69.759 4.71951 65.799 5.12951 65.139C5.53951 64.479 8.60951 64.519 9.01951 65.219C9.27951 65.669 9.16951 70.159 9.14951 71.099C9.12951 72.039 8.41951 72.769 10.0695 72.899C10.5795 72.939 11.1495 72.689 11.7495 72.689C25.1495 72.689 38.5495 72.689 51.9395 72.689C52.9095 72.689 53.7595 73.029 54.7995 72.699V72.719ZM5.32951 77.009C3.54951 77.619 3.92951 79.969 5.75951 80.209H58.1795C60.2995 79.789 60.2495 77.419 58.1795 76.939L5.32951 77.009ZM29.8495 89.809C29.8995 88.149 29.8495 86.479 29.8495 84.819C29.8495 84.789 29.4995 84.449 29.4795 84.449H22.7395L21.7395 85.949L19.8695 90.689C20.1595 91.099 29.2095 91.099 29.7895 90.639C30.1395 90.349 29.8395 89.989 29.8495 89.819V89.809ZM43.8195 90.929C44.2295 90.079 43.6295 89.869 43.3895 89.239C43.0395 88.339 41.8495 84.439 40.9595 84.439H34.4695C33.7095 84.439 34.1195 88.189 34.1095 88.819C34.0895 89.599 33.4095 90.929 34.9695 90.929H43.8295H43.8195Z" fill="black"/>
<path d="M92.16 89.2584C86.05 84.7784 83.59 76.4384 90.26 71.1184C91.39 70.2084 96.07 67.9384 97.16 69.0384C97.67 69.5584 97.39 72.5184 96.53 72.9084C94.55 73.8084 93.54 73.0284 91.73 75.3384C88.99 78.8484 90.95 82.8284 93.85 85.4384C96.95 88.2284 100.24 88.6884 103.58 85.9384C107.6 82.6284 108.26 76.6084 108.2 71.7284C105.76 72.0584 103.58 73.8384 100.95 73.1184C99.61 68.4384 101.33 69.6184 104.45 68.6084C105.49 68.2684 108.21 66.5584 108.85 66.4884C110.09 66.3684 110.11 67.3784 110.7 67.6184C111.29 67.8584 112.23 66.8984 112.45 68.5984C112.97 72.6484 111.91 80.2984 110.13 84.0084C108.5 87.4084 104.23 91.5084 100.34 91.9384C99.22 92.0584 97.7 91.6684 96.87 91.7584C95.62 91.8984 86.01 102.718 84.13 104.178C82.64 105.148 81.57 103.248 80.75 102.298L80.93 101.738L91.97 90.5584C92.35 90.1484 92.55 89.7284 92.15 89.2684L92.16 89.2584Z" fill="black"/>
<path d="M30.7902 15.6376C31.0602 15.8676 31.0902 16.5776 31.1102 16.9376C31.5302 22.7676 31.6002 32.8876 31.1102 38.6676C31.0502 39.3776 30.8002 40.6976 30.5302 41.3376C30.2502 42.0076 28.3902 43.7676 27.7502 44.0476C26.7302 44.4976 24.3002 44.3676 23.7402 45.5276C23.1802 46.6876 23.8602 52.9176 23.5902 54.8676C22.7202 61.1176 13.3502 61.3276 12.1602 55.1076V31.2276C12.2202 31.0276 12.3802 30.9376 12.5302 30.8276C12.8702 30.5776 15.9402 30.4776 16.0102 31.2876L16.1402 53.8676C16.4902 56.1876 19.0402 56.1676 19.3502 54.1176C20.0202 49.8176 17.6702 43.8076 22.5702 41.1176C24.3702 40.1276 26.6102 41.1176 27.0302 38.3476L27.1402 15.9976C27.5102 15.0576 30.2702 15.2076 30.7802 15.6376H30.7902Z" fill="black"/>
<path d="M5.56773 8.13864L15.4877 8.09864C16.7777 8.02864 16.5077 11.7086 16.1277 11.9686C15.4077 12.4686 11.5577 11.9286 10.2777 12.1086C8.30773 12.3786 9.14773 12.8586 9.14773 14.1886C9.11773 29.4986 9.12773 44.8086 9.14773 60.1186C9.00773 61.9586 4.71773 61.9886 4.88773 59.8586L5.01773 8.57864L5.56773 8.12864V8.13864Z" fill="black"/>
<path d="M77.3101 104.958C78.2701 104.398 80.9301 106.828 80.3801 107.898C77.7201 110.208 75.3301 113.438 72.6401 115.628C65.2901 121.618 56.2401 112.808 63.2801 105.028C68.4401 99.3278 74.9501 93.5378 80.5001 88.0678C81.1401 87.4378 81.2601 86.3378 82.5801 86.7378C83.0601 86.8778 85.3501 89.0978 84.4801 89.7778L65.9101 108.148C63.0801 111.378 66.3401 115.388 70.0401 112.528C72.1901 110.868 74.6901 107.788 76.7801 105.788C77.0201 105.558 77.2401 105.008 77.3101 104.958Z" fill="black"/>
<path d="M25.0486 0.669275C28.0486 0.259275 34.8486 0.349275 37.9686 0.599275C45.2386 1.16928 45.9686 9.78928 39.4386 12.0693L24.0486 12.0193C18.2586 9.82928 18.6886 1.53928 25.0486 0.669275ZM25.7886 4.65928C23.5686 5.05928 23.5786 7.24928 25.4886 8.08928C29.3686 7.67928 34.4586 8.65928 38.1886 8.08928C40.4986 7.72928 40.1386 4.97928 37.9386 4.62928C36.1286 4.33928 27.5586 4.35928 25.7886 4.66928V4.65928Z" fill="black"/>
<path d="M89.1701 17.1283C98.3501 15.4183 104.67 26.7783 97.8501 33.2983C91.0301 39.8183 80.5301 34.0483 81.8101 24.7483C82.2601 21.4983 85.9301 17.7383 89.1601 17.1283H89.1701ZM90.9301 21.1183C85.0601 21.4383 83.8601 29.5283 89.0901 31.5583C93.8301 33.3883 98.1201 28.5683 95.9001 23.9983C95.0901 22.3183 92.7901 21.0183 90.9201 21.1283L90.9301 21.1183Z" fill="black"/>
<path d="M73.6801 39.8687C82.5201 48.0087 70.9001 62.2187 61.0401 54.1287C51.1801 46.0387 64.3201 31.2587 73.6801 39.8687ZM71.42 50.4187C73.22 48.0787 72.9101 44.4787 70.5001 42.6787C67.2201 40.2287 62.59 42.0587 61.85 45.9587C60.8101 51.4387 68.18 54.6287 71.42 50.4187Z" fill="black"/>
<path d="M73.6691 15.9191C83.8391 23.1691 72.3591 39.3191 61.9691 31.0391C52.7191 23.6691 63.6391 8.77912 73.6691 15.9191ZM66.9691 18.3891C63.9391 18.8591 61.9891 22.2491 62.8191 25.1591C64.3791 30.6691 72.6691 30.0891 73.2691 24.9391C73.7491 20.8391 71.2491 17.7191 66.9691 18.3891Z" fill="black"/>
<path d="M23.3016 27.9971C22.6716 28.6271 19.7016 28.3271 19.4216 27.3871C19.1816 26.5971 19.2416 19.8171 19.3716 18.6971C19.4216 18.2371 19.5416 17.5371 20.0416 17.3671C20.7116 17.1471 23.3016 17.1071 23.5716 17.9971C23.8416 18.8871 23.7416 25.3771 23.6316 26.6871C23.6016 27.0771 23.5916 27.7171 23.3116 27.9871L23.3016 27.9971Z" fill="black"/>
<path d="M50.4877 29.8478C51.0577 29.6778 53.4077 30.0878 53.6777 30.5478C53.8777 30.8878 53.4777 35.5978 53.5377 36.6778C53.5777 37.4478 54.1677 39.1278 54.0177 39.6178C53.8477 40.1778 50.7777 41.0278 50.2877 40.6778C49.8877 40.3878 49.3077 36.1778 49.2977 35.4278C49.2777 34.5278 49.6077 30.6978 50.0377 30.1578C50.1477 30.0078 50.3077 29.9078 50.4877 29.8478Z" fill="black"/>
<path d="M86.6781 9.14852C87.2581 9.61852 86.3181 12.6785 85.3581 12.8385C84.7581 12.9385 80.4381 11.8085 79.3581 11.6185C78.5381 11.4785 76.9781 11.8685 76.7681 10.7185C76.5881 9.73852 76.4681 7.58852 77.7081 7.38852C78.2781 7.29852 81.7881 7.75852 82.5681 7.90852C83.0581 7.99852 86.5181 9.01852 86.6881 9.14852H86.6781Z" fill="black"/>
<path d="M33.8383 127.858H29.8483C30.0183 126.368 29.1183 123.878 31.2083 123.658C31.2983 123.658 32.7383 123.698 32.8483 123.728C34.9583 124.108 33.7983 126.388 33.8283 127.858H33.8383Z" fill="black"/>
<path d="M101.397 79.8886C100.827 80.4586 97.6271 80.6186 97.4471 79.0886C97.1671 76.6986 97.8871 75.3886 100.527 76.0086C101.987 76.3486 102.067 79.2186 101.397 79.8886Z" fill="black"/>
<path d="M2.83139 122.899C3.29139 122.779 4.52139 123.939 5.24139 123.899C6.68139 124.189 4.94139 127.669 4.49139 127.829C3.84139 128.059 1.34139 126.909 1.19139 126.449C0.941394 125.669 2.08139 123.089 2.83139 122.899Z" fill="black"/>
<path d="M77.0698 61.9288C76.3998 61.2488 76.6398 58.3388 77.9398 58.0488C80.5098 57.4688 81.3398 58.7488 81.0098 61.1288C80.7898 62.7488 77.6198 62.4888 77.0698 61.9288Z" fill="black"/>
<path d="M60.7281 127.799C60.5181 127.919 59.1681 127.919 59.0581 127.839C58.9281 127.729 57.9881 124.799 58.0081 124.499C58.0381 124.039 60.5881 122.969 60.9081 122.969C61.8181 122.969 62.8481 125.529 62.7881 126.249C62.7181 127.059 61.7181 126.869 61.1881 127.169C60.8681 127.349 60.8281 127.749 60.7181 127.809L60.7281 127.799Z" fill="black"/>
<path d="M12.1727 27.0182C12.2527 24.5482 11.2127 22.7382 14.5127 23.0682C16.4727 23.2582 16.3827 24.3782 16.1427 26.1982C15.9027 28.0182 13.4327 27.3482 12.1727 27.0282V27.0182Z" fill="black"/>
<path d="M100.631 35.578C101.481 35.298 103.981 35.278 104.201 36.418C104.76 39.338 103.791 39.868 101.071 39.548C99.3605 39.348 99.7705 35.868 100.631 35.578Z" fill="black"/>
<path d="M23.3301 35.5082C21.8801 35.3682 19.6901 36.2882 19.3901 34.4082C18.9501 31.6282 19.9401 31.2382 22.5101 31.5382C24.1301 31.7282 23.7201 34.3382 23.3301 35.5082Z" fill="black"/>
<path d="M12.1779 19.5276C12.0179 19.2676 12.0579 16.1576 12.3679 15.9376C15.2279 15.6276 16.5879 15.3376 16.1379 18.7076C15.9079 20.4176 12.4879 20.0176 12.1779 19.5276Z" fill="black"/>
</svg>
