<svg width="129" height="128" viewBox="0 0 129 128" fill="none" xmlns="http://www.w3.org/2000/svg">
<path d="M11.9448 0.0605469C13.4048 2.20055 12.2648 4.91055 12.7048 7.16055C12.9648 8.51055 14.0948 7.79055 15.0548 7.78055C25.0748 7.66055 35.1248 7.78055 45.1348 7.94055C47.1348 7.87055 46.1748 5.89055 46.3948 4.44055C46.4848 3.83055 46.9248 3.28055 47.1648 2.72055L49.8648 0.0605469H54.6048C55.0748 0.870547 55.9348 1.00055 56.6148 1.67055C57.3248 2.37055 58.1948 3.95055 58.3248 4.95055C58.4548 5.95055 57.9448 7.41055 58.9148 7.87055C62.0848 7.81055 65.2848 7.76055 68.4648 7.79055C69.1548 7.79055 69.7848 8.26055 70.4248 7.79055C71.1348 7.27055 70.7248 5.70055 70.8848 4.75055C71.2448 2.55055 73.0348 1.38055 74.5648 0.0705469H79.3048L81.7948 2.44055C82.6048 3.52055 82.9249 4.88055 83.0148 6.21055C83.0448 6.65055 82.6348 7.24055 82.8948 7.57055C83.4348 8.27055 85.1648 7.79055 85.9048 7.79055C95.3048 7.81055 104.725 7.68055 114.125 7.79055C114.615 7.79055 116.485 8.32055 116.485 7.43055V1.43055C116.485 1.35055 117.375 0.540547 117.235 0.0605469H127.715L128.475 1.42055V118.711C128.435 119.101 127.135 119.861 126.715 119.971C125.995 120.161 125.435 119.711 124.975 119.931C124.095 120.371 124.745 121.111 124.735 121.701C124.725 122.341 124.275 122.951 124.695 123.451C125.185 124.041 126.115 123.701 126.795 123.861C126.895 123.881 128.365 124.531 128.425 124.601C128.665 124.871 128.595 127.501 127.705 127.681L117.395 127.821C116.305 126.531 116.005 124.831 117.835 124.051C119.665 123.271 120.855 124.961 120.485 121.181C120.285 119.071 119.335 120.321 118.055 119.881C117.315 119.631 116.515 118.791 116.475 117.961L116.365 12.5305L115.375 12.0205L83.4748 12.0805C82.3748 12.5005 83.0848 13.2205 83.0248 13.8705C82.8548 15.6305 82.2748 17.2005 80.9648 18.4205C80.5648 18.7905 79.1448 19.5105 79.0648 19.6905C78.6048 20.6905 78.7648 22.9105 79.0648 23.9905H96.6548C97.9148 23.9905 109.705 37.2205 111.845 38.7405C113.185 40.4305 112.885 40.8805 111.625 42.4605C108.755 46.0705 104.175 49.3405 101.145 52.9405C100.755 53.7605 98.0248 53.2805 98.0248 53.4405V60.0505C98.0248 61.4405 94.6148 62.3705 94.0848 60.0005C93.7048 58.3205 93.8348 50.3205 94.0248 48.3105C94.1448 47.0505 94.9748 45.7005 96.3948 45.9505C97.5448 46.1505 98.8848 48.7705 99.9548 48.2805L107.125 41.1905C107.575 40.6705 107.565 40.2405 107.125 39.7305L95.9548 28.5705C95.0048 27.8505 92.2548 28.2405 90.9048 28.2505C90.2248 28.2505 89.1048 27.7605 88.6748 28.4905C88.4548 28.8605 88.5148 29.6005 88.3148 30.1205C87.7048 31.6705 86.8148 33.0505 85.7948 34.3505C85.4748 34.7605 84.5948 35.0305 84.5548 35.8505C85.4548 37.7605 89.0748 39.0305 87.7648 41.5505L76.4448 52.9305C75.5948 53.8005 74.5848 53.1505 73.5748 53.4305V79.0105C73.5748 79.2105 74.3648 79.7405 74.6848 79.6505C80.3548 79.2805 86.5648 80.1005 92.1748 79.6505C93.1148 79.5705 93.9248 79.5905 94.0548 78.5305C94.4348 75.4505 93.4648 70.6705 94.0948 67.8405C94.5748 65.6805 97.7448 65.7206 98.0448 68.2805C98.2448 70.0205 97.6948 78.4605 98.1548 79.1505C98.6648 79.9305 101.745 79.4805 102.785 79.7605C106.005 80.6105 107.785 84.9905 106.535 88.0205C106.315 88.5505 105.615 89.0605 105.565 89.5406C105.515 90.0206 106.485 91.1005 106.695 91.8105C107.085 93.1105 106.905 94.3006 106.755 95.6105C108.915 95.8605 111.995 94.6805 112.945 97.2805L113.005 125.681C112.885 126.271 112.435 127.751 111.885 127.811L16.9748 127.751L16.1748 125.431L16.2948 97.0805C17.3848 94.7105 20.3148 95.8505 22.4248 95.6005C22.2348 94.1005 22.0548 92.8905 22.6148 91.4305C22.8348 90.8505 23.6648 90.0406 23.6148 89.5305C23.5748 89.0605 22.8648 88.5505 22.6448 88.0105C21.5348 85.3305 22.4748 82.5205 24.6848 80.7805C27.1848 78.8005 28.7948 80.4005 31.1148 78.9805C31.5248 74.9505 30.6848 70.2206 31.1448 66.2805C31.4148 63.9305 34.3548 63.7305 35.0848 65.8405L35.1348 78.7705C35.0548 79.1705 36.0248 79.6405 36.2648 79.6405H68.9548C68.9548 79.6405 69.3248 79.2905 69.3248 79.2705V47.5805C69.3248 47.4905 70.1648 46.5406 70.3848 46.3905C72.7148 44.7405 73.9448 48.9205 75.4048 48.4305L83.0348 40.5605C79.3248 36.3205 75.0248 32.4505 71.0748 28.3705H64.3348C61.8948 39.1405 47.8548 41.9605 41.9348 32.3105L40.2348 28.2505C39.6848 27.8605 39.1248 28.2505 38.5248 28.2505C37.2348 28.2505 34.1148 27.8905 33.2148 28.5605L22.0548 39.7305C21.6148 40.2405 21.6048 40.6805 22.0548 41.1905L29.2248 48.2805C30.2948 48.7605 31.6348 46.1505 32.7848 45.9505C34.2048 45.7005 35.0348 47.0605 35.1548 48.3105C35.2948 49.8305 35.3748 57.0605 35.0348 58.1905C34.6548 59.4305 33.1048 59.9805 32.0248 59.1805C31.8248 59.0305 31.1548 58.2006 31.1548 58.0505V53.4305C31.1548 53.2605 28.2848 53.7805 27.9048 52.8105C24.9348 49.1005 20.2248 45.8205 17.3348 42.1705C16.1648 40.6905 16.1548 40.2205 17.3348 38.7305C19.3548 37.2405 31.4648 23.9805 32.5248 23.9805H50.1148C50.9148 22.2305 49.5848 17.6505 51.0248 16.5305C51.9248 15.8305 53.4148 16.1405 54.0748 14.8405C54.3748 14.2505 54.6148 12.0005 53.9848 12.0005H13.3148C13.3148 12.0005 12.8748 12.3805 12.8148 12.5005L12.6948 117.931C12.6448 118.761 11.8548 119.591 11.1148 119.851C9.82484 120.291 8.88484 119.041 8.68484 121.151C8.31484 124.931 9.42484 123.201 11.3348 124.021C13.2448 124.841 12.8648 126.501 11.7748 127.791C8.75484 127.471 4.99484 128.181 2.07484 127.791C1.38484 127.701 1.21484 127.381 0.714844 127.031V124.531C1.41484 124.661 1.80484 123.961 2.38484 123.831C3.02484 123.681 3.79484 123.971 4.35484 123.551C4.98484 123.081 4.45484 122.351 4.44484 121.671C4.44484 121.151 5.10484 120.071 4.03484 119.821C3.65484 119.731 3.18484 120.071 2.64484 119.991C1.99484 119.891 1.40484 119.111 0.714844 119.031V0.0605469H11.9448ZM5.11484 4.09055C4.99484 4.13055 4.88484 4.18055 4.81484 4.29055V115.341C5.15484 116.001 6.90484 115.941 7.58484 115.851C9.36484 115.611 8.45484 114.211 8.43484 112.981C7.78484 77.7905 8.00484 41.6305 8.43484 6.41055C8.43484 5.60055 9.08484 4.42055 8.02484 4.10055C7.62484 3.98055 5.48484 3.96055 5.11484 4.08055V4.09055ZM53.7848 4.63055C53.1048 3.89055 51.7248 3.82055 50.9848 4.54055C50.2448 5.26055 49.8548 7.83055 51.2948 8.00055C51.9648 7.62055 53.6448 8.13055 54.0048 7.83055C54.7048 7.23055 54.3848 5.29055 53.7848 4.63055ZM75.3948 4.63055C74.7948 5.28055 74.4748 7.23055 75.1748 7.83055C77.3548 7.86055 79.6848 8.70055 78.6948 5.54055C78.2148 4.01055 76.4848 3.45055 75.3948 4.63055ZM121.155 4.10055C120.695 4.24055 120.435 4.70055 120.465 5.16055C120.905 41.6205 120.905 78.2606 120.465 114.721C120.395 116.411 124.875 116.411 124.485 114.471L124.365 4.28055C124.125 3.94055 121.655 3.95055 121.155 4.10055ZM78.7748 12.3205C78.2548 11.4705 61.1748 12.2905 58.8448 12.1605C58.0048 12.5705 58.4748 14.4605 58.2948 15.3505C58.0248 16.6905 56.9348 17.8705 55.9748 18.7705C54.8748 19.8005 54.5048 19.0805 54.3448 21.1405C54.2648 22.1905 54.0348 24.0205 55.4648 24.0305L74.3148 23.8905C75.7648 23.1805 73.5048 17.5105 76.0748 16.1705C76.6948 15.8505 77.7048 15.9605 78.1748 15.5205C78.6948 15.0405 79.0848 12.8305 78.7648 12.3105L78.7748 12.3205ZM59.7248 28.2505H46.0048C45.8248 28.2505 44.5748 27.6905 44.6748 28.8305C44.7248 29.4205 46.7648 32.0905 47.3148 32.5005C51.1448 35.3905 56.7048 34.2305 59.1948 30.2105C59.4448 29.8105 60.3748 28.4105 59.7248 28.2505ZM82.9748 31.4205C83.1648 31.2105 84.4948 29.0205 84.5048 28.8305C84.5248 28.5405 84.2748 28.2205 84.0348 28.1205C83.3648 27.8205 78.9648 28.7305 77.8048 28.1205C76.8548 28.0305 76.8448 28.5905 77.4648 29.2305C77.8748 29.6505 80.5948 32.2906 80.8048 32.3905C81.5048 32.7206 82.4948 31.9605 82.9648 31.4405L82.9748 31.4205ZM27.2448 87.3105C27.5948 87.5505 28.3348 87.6105 28.7848 87.6505C38.9748 88.4505 50.1848 87.0305 60.4848 87.6505C63.2448 87.1605 63.1748 84.2206 60.4848 83.6405C50.3048 84.3105 39.0848 82.7906 29.0248 83.6405C27.5548 83.7606 26.0848 84.1605 26.4048 86.0105C26.4448 86.2305 27.0848 87.2105 27.2348 87.3205L27.2448 87.3105ZM101.945 87.3105C102.095 87.2005 102.735 86.2306 102.775 86.0005C103.095 84.1606 101.625 83.7605 100.155 83.6305C90.1048 82.7805 78.8748 84.2906 68.6948 83.6305C65.8148 84.0205 66.0948 87.3306 68.6948 87.6405C78.9949 87.0205 90.2048 88.4406 100.395 87.6405C100.835 87.6105 101.585 87.5505 101.935 87.3005L101.945 87.3105ZM28.6048 91.7005C25.8348 91.5605 25.6548 95.3105 28.2748 95.6305H60.4748C63.3548 95.1005 63.1448 91.9805 60.2248 91.6305L28.6048 91.7105V91.7005ZM67.1548 95.0505C67.4848 95.3905 68.4448 95.6305 68.9448 95.6305H100.895C101.815 95.6805 102.755 94.6305 102.775 93.7605C102.825 92.0105 101.565 91.7605 100.135 91.6305C90.1948 90.7505 79.0148 92.2905 68.9448 91.6205C67.2248 91.6605 65.7948 93.6905 67.1448 95.0505H67.1548ZM20.8548 99.9205L20.3048 100.371V123.331L20.8548 123.781L108.505 123.711L108.955 123.161L108.885 100.381L108.335 99.9305H20.8548V99.9205Z" fill="black"/>
<path d="M28.4643 108.16C28.2443 108.37 28.4243 113.12 28.4243 113.97C28.4243 114.97 27.6843 115.51 29.3043 115.81L99.6544 115.83C100.304 115.76 100.854 115.73 100.894 114.97C100.984 113.45 100.754 111.35 100.754 109.71C100.754 108.71 101.494 108.17 99.8744 107.87H42.7443C39.8143 107.35 40.0243 103.96 42.9943 103.61L102.614 103.64C104.084 103.93 104.794 104.5 104.984 106.01C105.274 108.32 105.304 115.43 104.984 117.69C104.834 118.74 104.234 119.56 103.224 119.92C77.7043 120.29 52.1143 120.01 26.5643 120.06C25.2743 119.89 24.3743 119 24.1943 117.69C23.8543 115.25 23.9443 109.04 24.1643 106.47C24.3043 104.8 24.7943 103.88 26.5643 103.63C27.8343 103.45 33.7843 103.46 34.7243 103.92C36.5443 104.81 36.1543 107.37 34.2343 107.8C32.9543 108.09 29.2243 107.47 28.4743 108.16H28.4643Z" fill="black"/>
</svg>
