<svg width="76" height="128" viewBox="0 0 76 128" fill="none" xmlns="http://www.w3.org/2000/svg">
<path d="M74.8029 10.7813C71.2929 7.26133 67.6129 3.79133 64.2729 0.171328L11.6029 0.111328C8.15292 3.71133 4.51292 7.24133 0.95292 10.7813C0.15292 12.1113 0.13292 12.9313 0.85292 14.3113C7.13292 23.0813 12.6029 32.4513 18.8129 41.2613C20.0629 43.0313 21.7429 46.4713 24.2829 44.7813C25.7429 43.8013 25.6929 41.5913 25.8329 39.8013C25.8629 39.4213 25.9029 39.0613 25.9629 38.7313C26.0429 38.2913 26.1729 37.8813 26.3129 37.4813C26.5829 36.7413 26.8929 36.0313 27.0629 35.2613C27.1029 35.1113 27.1329 34.9513 27.1529 34.7913C27.1929 34.7513 27.2329 34.7413 27.2929 34.7413C30.0329 28.6913 35.3529 26.3313 36.8829 25.7613C37.1629 25.6613 37.3129 25.6113 37.3129 25.6113C38.3629 25.4013 41.8329 27.1013 43.5829 28.4213C43.6029 28.4413 43.6129 28.4513 43.6329 28.4613C46.2429 30.3413 48.8429 33.3613 49.6229 38.1513C49.6329 38.1913 49.6429 38.2313 49.6429 38.2713C49.6829 38.5213 49.7129 38.7813 49.7529 39.0513V39.0913C49.9929 41.1613 50.0629 43.8413 51.4729 44.7813C54.0629 46.5113 55.8829 42.7813 57.1429 40.9613C61.9129 34.1613 66.6829 26.8413 71.2229 19.8613C72.1029 18.5013 75.3029 14.0313 75.4429 12.8513C75.5329 12.0713 75.0829 11.4413 74.8029 10.7813ZM32.1329 22.1913C28.8529 23.9613 26.3829 26.4313 24.3029 29.4613C23.1229 31.1613 22.0429 32.9513 21.6529 35.0413L21.1529 34.9213L6.82292 13.5713L6.72292 12.7713C8.51292 10.5113 10.8029 8.66133 12.7429 6.51133L13.6629 6.47133L32.3729 21.4713L32.1329 22.1913ZM35.3029 16.9113C30.6729 13.4113 25.9529 9.84133 21.4829 6.16133C21.2429 5.96133 20.8429 5.89133 20.9129 5.48133L54.8429 5.35133L37.9829 18.8213C36.8329 18.9013 36.0329 17.4613 35.3029 16.9113ZM69.0229 13.4013L54.4729 35.0413C54.0829 35.0413 53.3029 32.5613 53.0229 32.0013C51.2829 28.4913 48.4129 25.3513 45.2329 23.0813C44.6929 22.6913 43.1229 22.3213 43.3829 21.4713C43.4829 21.1413 47.9029 18.2813 48.3729 17.4613C52.3129 14.4313 56.2729 11.2813 60.2529 8.27133C60.9929 7.71133 62.1429 5.73133 63.2529 6.68133L68.2329 11.6813C68.5629 12.2413 69.2629 12.6813 69.0229 13.4013Z" fill="black"/>
<path d="M55.5427 110.032L54.8427 112.212C50.4027 116.642 45.9227 121.042 41.4627 125.462C40.7827 126.122 39.8027 127.032 39.3727 127.862H36.3827C36.3727 127.402 36.0727 127.142 35.7727 126.852C30.7527 122.062 25.8627 117.092 20.9227 112.212L20.2227 110.212C22.9327 87.4717 26.9227 64.8517 29.6127 42.1217C29.6827 41.4517 29.8327 40.5517 29.9027 39.6817C29.9627 38.9417 29.9627 38.2417 29.8327 37.7217C29.7227 37.3017 27.9927 34.7117 27.2927 34.7417C30.0327 28.6917 35.3527 26.3317 36.8827 25.7617C35.3627 26.4017 31.3727 28.7817 31.1727 29.4917C30.8927 30.5117 33.6527 33.7117 34.3027 34.7517L41.3027 34.8717C42.0327 33.9317 44.8427 30.4717 44.5827 29.4917C44.5127 29.2317 44.1527 28.8617 43.6327 28.4617C46.2427 30.3417 48.8427 33.3617 49.6227 38.1517C49.5927 38.0017 49.5627 37.8717 49.5327 37.7417C49.4427 37.3617 48.7227 34.8917 48.6027 34.7917C47.9127 34.2117 45.9827 37.5017 45.8827 38.1817C45.8327 38.5117 45.8327 38.8617 45.8527 39.2117C45.8527 39.4517 45.8627 39.6817 45.8627 39.9117L49.0827 62.6417C48.6427 65.8117 45.0827 66.6117 43.7327 63.5017L40.5127 40.5217C40.1727 40.0417 36.2027 40.3017 35.3627 40.3917L35.1827 40.7117L26.1827 105.822C26.2227 107.352 25.3027 109.022 26.4927 110.312L37.7827 121.362C38.5727 121.542 47.7727 111.272 49.3627 110.212C49.8927 109.572 49.9527 108.842 49.8527 108.032L46.6327 85.0917C47.3527 81.9417 50.8427 81.4317 52.0527 84.6217L55.5427 110.032Z" fill="black"/>
<path d="M48.0914 72.9723C51.3614 72.8123 51.7614 78.1423 48.2614 78.3123C45.0014 78.4723 44.5414 73.1423 48.0914 72.9723Z" fill="black"/>
<path d="M37.3031 91.4705C43.4831 90.9805 48.7131 96.7605 47.8331 102.86C46.2431 113.85 30.5231 114.39 28.0931 103.87C26.6731 97.7105 30.9531 91.9705 37.3031 91.4705ZM39.8031 97.6605C39.8031 97.4905 39.8231 97.3205 39.7831 97.1605C39.6731 96.7005 39.2831 95.6505 39.0831 95.1805C38.9831 94.9305 38.1931 93.3705 38.0831 93.3105C37.3231 92.9405 37.0031 94.7305 36.6031 95.1705L35.9031 97.4405C35.9831 97.8605 36.1831 97.6605 36.3131 97.6605H39.8031ZM35.3131 93.7405C33.3531 94.2005 31.4931 95.8605 30.6331 97.6605C31.1831 97.6105 33.8031 97.8005 34.0531 97.5405C34.2531 97.3405 34.5231 95.7805 34.6431 95.4105C34.7231 95.1705 35.4131 93.8305 35.3131 93.7405ZM45.0631 97.6605C45.1531 97.5305 44.4731 96.5005 44.3431 96.3305C43.6931 95.5105 42.1731 94.3205 41.2131 93.9205C41.0631 93.8605 40.5231 93.6505 40.4831 93.8905L41.7331 97.6105L41.9631 97.7105L45.0731 97.6605H45.0631ZM33.5431 99.4705H29.9131C29.8231 99.4705 29.7131 99.8405 29.6931 99.9205C29.5531 100.68 29.5431 102.09 29.6731 102.85C29.7631 103.35 29.9931 103.53 30.4731 103.58C31.1631 103.64 32.4631 103.64 33.1631 103.58C34.0631 103.5 33.6831 103.12 33.6831 102.48C33.6831 101.81 33.6831 101.14 33.6831 100.46C33.6831 100.25 33.8831 99.5705 33.5431 99.4605V99.4705ZM40.1731 99.5905C40.0131 99.3605 36.1731 99.4905 35.6031 99.5205C35.5331 99.5805 35.4831 99.6705 35.4531 99.7605C35.3531 100.08 35.3531 102.73 35.4031 103.16C35.4531 103.55 35.5731 103.56 35.9231 103.59C36.8831 103.68 38.6831 103.66 39.6631 103.59C40.2431 103.55 40.2431 103.44 40.2831 102.87C40.3131 102.41 40.3231 99.8205 40.1631 99.5905H40.1731ZM42.1531 99.4705C41.6031 100.18 42.2031 101.02 42.1131 101.91C42.0831 102.17 41.6331 103.58 42.1531 103.58H45.6931C45.9631 103.58 46.1231 102.01 46.1231 101.72C46.1231 101.37 46.0331 99.4705 45.6931 99.4705H42.1531ZM33.9231 105.3H30.7231C30.6931 105.67 31.0331 106.14 31.2531 106.44C32.1731 107.65 33.6831 108.85 35.1631 109.22C35.3931 109.22 34.6131 107.47 34.5731 107.33C34.4631 107 34.1431 105.37 33.9231 105.3ZM36.1231 105.3C35.9531 105.41 35.9731 105.54 35.9831 105.72C36.0431 106.55 36.9431 108.54 37.3931 109.29C37.5631 109.58 37.8131 110.08 38.1831 109.66C38.2531 109.58 39.0031 108.08 39.0831 107.89C39.3631 107.22 39.4831 106.32 39.8031 105.64C39.8431 105.54 39.7331 105.31 39.6631 105.31H36.1231V105.3ZM41.7831 105.32C41.6631 105.35 41.5831 105.44 41.5431 105.56C41.4431 106.22 41.2831 106.95 41.0731 107.57C40.8031 108.39 39.7031 109.82 41.5231 108.88C42.4231 108.41 43.5431 107.55 44.1931 106.77C44.4231 106.49 45.3531 105.41 44.7231 105.29C44.4431 105.24 42.0031 105.24 41.7831 105.31V105.32Z" fill="black"/>
</svg>
