<svg width="129" height="102" viewBox="0 0 129 102" fill="none" xmlns="http://www.w3.org/2000/svg">
<path d="M13.5039 21.2824C9.18393 21.9124 5.64393 26.3224 5.31393 30.5724C4.47393 41.5824 5.96393 53.6424 5.31393 64.7624C5.61393 67.3924 9.15393 67.4024 9.56393 64.0224C9.61393 53.9524 9.47393 43.8824 9.57393 33.8124C9.57393 32.5624 9.33393 31.2224 9.57393 29.8524C9.88393 28.1224 11.7739 25.9924 13.4839 25.5224C14.3339 25.2824 26.4109 25.1424 28.4609 25.0824V21.2124C26.3809 21.1824 14.3139 21.1624 13.4939 21.2824H13.5039ZM126.454 85.6124C125.134 85.4024 123.554 86.2924 123.594 84.4724V30.8124C122.454 21.7824 117.944 21.3024 100.134 21.3024H99.9339V25.1124H100.134C101.964 25.1124 112.044 25.1324 113.004 25.2024C117.644 25.5224 119.534 28.0024 119.604 32.5724C119.864 49.2924 119.184 66.2124 119.344 82.9824C119.344 83.7524 119.944 85.2124 118.934 85.5524C118.594 85.6724 117.124 85.6724 116.774 85.5524C115.674 85.1824 116.364 83.3024 116.374 82.4924C116.634 65.4623 116.194 48.4123 116.304 31.3823C115.974 30.4223 115.324 29.3924 114.224 29.2224L100.134 29.2624H99.5739V33.4424H111.744C111.744 33.4424 112.114 33.7924 112.114 33.8224V84.9724C112.114 85.0524 111.784 85.3524 111.864 85.5924H17.0539C17.1339 85.3524 16.8039 85.0524 16.8039 84.9724V33.8224C16.8039 33.8224 17.1539 33.4424 17.1739 33.4424H28.4609V29.0524C27.2109 29.0224 15.7739 29.0524 14.6939 29.2224C13.7239 29.3723 13.1339 30.1824 12.7539 31.0224C12.5339 48.2924 12.3839 65.6824 12.5539 82.9824C12.5539 83.8424 13.2239 85.3524 11.9439 85.5924C8.71393 86.2124 9.54393 84.6324 9.58393 82.7324C9.61393 80.8224 9.97393 74.3424 8.74393 73.2024C7.63393 72.1623 5.58393 72.7224 5.34393 74.2624C5.03393 76.2424 5.77393 84.5024 5.10393 85.4524C4.96393 85.6524 0.823933 85.5023 0.573933 86.5124C0.403933 87.2324 0.443933 93.5323 0.573933 94.4623C1.00393 97.5623 5.28393 101.352 8.47393 101.542L103.644 101.452C105.944 100.182 104.704 97.5024 102.274 97.5624H9.69393C7.88393 97.7724 4.57393 95.1824 4.57393 93.4524V89.8324L53.6139 89.5824C54.4039 89.6624 54.2039 90.6023 54.4739 91.2224C55.1639 92.8123 56.5439 94.8223 58.2439 95.4324C60.0639 96.0924 68.5739 96.0624 70.4439 95.4524C72.3639 94.8224 73.5839 93.1424 74.3639 91.3824C74.6339 90.7424 74.4739 89.7024 75.3139 89.5824H123.464C124.974 89.8724 124.384 93.4124 123.884 94.4924C121.924 98.8424 117.074 97.1424 113.484 97.5624C110.824 97.8824 110.554 101.262 113.234 101.572C117.744 102.092 123.664 101.902 126.594 97.9424C127.264 97.0323 127.444 95.7924 128.334 95.0723V86.3424C127.634 86.2824 127.134 85.7224 126.454 85.6124ZM69.2139 91.4724C68.3839 91.7224 60.8539 91.7423 59.8939 91.5323C58.9439 91.3223 58.2139 90.3124 59.0939 89.5924H69.8239C70.4039 89.5924 70.4139 91.1023 69.2139 91.4724Z" fill="black"/>
<path d="M40.4809 4.69523H78.4609C79.6509 4.69523 80.6209 3.72523 80.6209 2.53523C80.6209 1.34523 79.6609 0.385227 78.4809 0.375227C65.3509 0.285227 52.1709 0.375227 39.0909 0.815227C33.4609 2.22523 29.2109 6.67523 28.4609 12.4352V25.6152C28.5809 26.1152 28.5509 26.6952 28.4609 27.2852V42.4852C29.1409 47.5752 32.7409 52.0552 37.6509 53.6752C39.2509 54.2152 39.6709 53.3052 39.8709 55.7152C40.2109 59.8652 39.5909 64.4752 39.8709 68.6852C40.6509 70.4152 42.1909 70.8052 43.6109 69.4452L58.6409 54.5352C58.9709 54.3452 59.3309 54.3652 59.6909 54.3352C65.1209 53.8352 71.5709 54.9552 76.9209 54.3352C79.4909 54.0452 80.1809 51.5452 77.9109 50.3552L57.2609 50.3952C56.7309 50.5152 55.1909 51.9652 54.6709 52.4252C51.8309 55.0152 48.3409 58.5852 45.6909 61.4152C45.2809 61.8552 44.6609 63.5652 43.9809 62.5752C43.3009 61.6052 44.3809 53.1852 43.6709 51.4052C43.1109 50.1052 39.4709 49.9952 37.9809 49.3552C34.8309 48.0252 32.7109 44.5952 32.3809 41.2352C33.3209 32.5052 30.9609 20.4752 32.7509 12.1652C33.4509 8.94523 36.9509 4.68523 40.4909 4.68523L40.4809 4.69523ZM100.461 12.7152C100.471 12.7652 100.471 12.8052 100.481 12.8552V12.7152H100.461Z" fill="black"/>
<path d="M100.481 12.8535V41.8135C100.481 41.8135 100.471 41.9035 100.461 41.9535C99.8911 45.8736 98.4011 49.4135 94.6811 51.9135C92.8411 53.1435 85.2911 56.3335 85.0211 52.4635C84.8411 49.7935 89.1411 50.1936 91.0611 49.2935C93.4311 48.1735 96.5011 44.4136 96.5011 41.7435V12.9235C96.5011 10.2535 93.4311 6.49355 91.0611 5.37355C89.1411 4.47355 84.8411 4.87355 85.0211 2.20355C85.2911 -1.66645 92.8411 1.52355 94.6811 2.75355C98.4011 5.25355 99.8911 8.79355 100.461 12.7135C100.471 12.7635 100.471 12.8035 100.481 12.8535Z" fill="black"/>
<rect x="34.4609" y="25.3438" width="26" height="7" rx="3.5" fill="black"/>
<path d="M86.1398 7.09503L76.0696 14.1873L76.0032 14.2362L73.954 15.6768C73.954 15.6768 73.9358 15.6816 73.9308 15.6799L71.3639 17.4719C71.3307 17.5375 71.2892 17.5947 71.2361 17.6535C70.7715 18.1271 69.4856 18.8003 68.7903 19.2672L68.6609 19.3551C66.5934 20.8334 64.5409 22.3495 62.4983 23.8691C61.962 25.6557 60.8865 27.4796 60.4629 29.2769C60.2769 30.0747 60.3896 30.7265 61.2953 30.9335C63.0986 30.7144 66.7333 31.3927 68.215 30.4841C69.8842 29.4634 71.5967 27.8379 73.3024 26.7254L73.3671 26.6814L79.7852 22.1989L80.1121 21.9693L80.1784 21.9205C80.8388 21.4582 81.4312 21.0497 81.7083 20.8527C83.1187 19.8434 84.6319 18.9563 85.9693 17.8346C86.7541 17.5459 86.4567 19.3145 85.9158 19.5869C83.8847 21.3186 81.5436 22.688 79.4462 24.3535C79.408 24.4338 79.3764 24.5108 79.3499 24.5896C79.0693 25.4869 79.7193 26.3859 80.7547 25.9295C80.9305 25.8519 81.2574 25.6552 81.6838 25.3771C83.4908 24.211 87.0184 21.658 87.503 21.0925C88.2647 20.1986 88.615 19.1603 88.6104 17.9914C88.6072 17.5409 88.2889 16.5291 88.3968 16.2915C88.6043 15.808 91.0765 14.4444 91.6623 13.7761C94.8336 10.1272 90.5798 4.77856 86.1398 7.09503ZM63.0146 28.6965L63.6355 26.8562C65.0569 28.1634 65.5892 29.2144 63.0146 28.6965ZM85.1072 15.905C84.9329 16.1093 83.8163 16.8396 83.4778 17.0871C81.7239 18.3752 79.8473 19.5342 78.0702 20.7926C74.6172 23.2393 71.2057 25.7274 67.7561 28.1808C67.5951 28.2306 67.474 28.1623 67.3413 28.0792C67.1141 27.9313 65.1506 25.208 65.1009 24.961C65.0479 24.7239 65.0197 24.5609 65.2288 24.3848L82.3742 12.3246C82.4936 12.2827 82.6347 12.2426 82.7574 12.2731C83.1141 12.366 84.774 15.102 85.235 15.5425C85.2897 15.709 85.2018 15.7889 85.1072 15.905ZM90.2809 12.0548C90.0469 12.4034 87.4202 14.4219 87.1183 14.3803C86.5096 13.8022 85.9822 13.0159 85.5047 12.3286C85.1266 11.7735 84.3371 11.0906 84.8946 10.5717C85.2083 10.2829 87.1463 8.95829 87.5146 8.80306C87.8697 8.6543 88.437 8.632 88.8136 8.71521C90.3049 9.04303 91.1041 10.798 90.2809 12.0548Z" fill="black"/>
</svg>
